<svg width="132" height="39" viewBox="0 0 132 39" fill="none" xmlns="http://www.w3.org/2000/svg">
<g clip-path="url(#clip0_480_457)">
<path d="M125 0.5H7C3.41015 0.5 0.5 3.41015 0.5 7V32C0.5 35.5899 3.41015 38.5 7 38.5H125C128.59 38.5 131.5 35.5899 131.5 32V7C131.5 3.41015 128.59 0.5 125 0.5Z" fill="#273143"/>
<path d="M69.1182 13.2319C68.2167 13.2319 67.4567 12.9152 66.8557 12.2917C66.2597 11.6857 65.9269 10.8503 65.9418 9.99742C65.9418 9.08719 66.2497 8.31662 66.8557 7.70565C67.4542 7.0822 68.2142 6.7655 69.1157 6.7655C70.0073 6.7655 70.7672 7.0822 71.3782 7.70565C71.9842 8.33657 72.2921 9.10714 72.2921 9.99742C72.2822 10.9102 71.9742 11.6807 71.3782 12.2892C70.7797 12.9176 70.0197 13.2319 69.1182 13.2319ZM42.2937 13.2319C41.412 13.2319 40.6471 12.9201 40.0213 12.3042C39.4004 11.6907 39.085 10.9152 39.085 9.99991C39.085 9.0847 39.4004 8.30914 40.0213 7.69567C40.6347 7.07971 41.3996 6.76799 42.2937 6.76799C42.7308 6.76799 43.1555 6.85527 43.5628 7.03233C43.9626 7.2044 44.288 7.43881 44.5289 7.7256L44.5885 7.79792L43.9154 8.46126L43.8459 8.37896C43.4659 7.9251 42.9568 7.70315 42.2838 7.70315C41.6827 7.70315 41.1587 7.91762 40.7266 8.34156C40.292 8.76799 40.0709 9.32659 40.0709 10.0024C40.0709 10.6782 40.292 11.2368 40.7266 11.6633C41.1587 12.0872 41.6827 12.3017 42.2838 12.3017C42.9245 12.3017 43.4634 12.0872 43.8831 11.6633C44.1315 11.4139 44.2855 11.0648 44.3401 10.6234H42.1819V9.69068H45.2665L45.2789 9.77547C45.3012 9.93258 45.3236 10.0947 45.3236 10.2443C45.3236 11.1047 45.0653 11.8004 44.5537 12.3142C43.9725 12.9226 43.2126 13.2319 42.2937 13.2319ZM77.9595 13.0997H77.0083L74.0952 8.41886L74.12 9.26176V13.0972H73.1688V6.90016H74.2541L74.2839 6.94754L77.0232 11.3565L76.9984 10.5161V6.90016H77.9595V13.0997ZM61.9706 13.0997H61.007V7.83283H59.3356V6.90016H63.6395V7.83283H61.9681V13.0997H61.9706ZM58.5508 13.0997H57.5897V6.90016H58.5508V13.0997ZM53.1492 13.0997H52.188V7.83283H50.5166V6.90016H54.8206V7.83283H53.1492V13.0997ZM49.9082 13.0897H46.2226V6.90016H49.9082V7.83283H47.1862V9.53358H49.6424V10.4563H47.1862V12.157H49.9082V13.0897ZM67.561 11.6508C67.9907 12.0822 68.5122 12.2992 69.1182 12.2992C69.7416 12.2992 70.2507 12.0872 70.6754 11.6508C71.0976 11.2269 71.3111 10.6708 71.3111 9.99991C71.3111 9.32909 71.0976 8.77048 70.6778 8.34904C70.2482 7.91762 69.7242 7.70066 69.1207 7.70066C68.4973 7.70066 67.9882 7.91263 67.566 8.34904C67.1438 8.77298 66.9302 9.32909 66.9302 9.99991C66.9302 10.6708 67.1413 11.2294 67.561 11.6508Z" fill="white"/>
<path fill-rule="evenodd" clip-rule="evenodd" d="M65.8526 21.7555C63.5056 21.7555 61.6032 23.5435 61.6032 26.0099C61.6032 28.4538 63.518 30.2642 65.8526 30.2642C68.1995 30.2642 70.1019 28.4637 70.1019 26.0099C70.1019 23.5435 68.1995 21.7555 65.8526 21.7555ZM65.8526 28.5785C64.5686 28.5785 63.4634 27.5111 63.4634 25.9999C63.4634 24.4662 64.5711 23.4213 65.8526 23.4213C67.1366 23.4213 68.2417 24.4662 68.2417 25.9999C68.2442 27.5211 67.1366 28.5785 65.8526 28.5785ZM56.5815 21.7555C54.2346 21.7555 52.3322 23.5435 52.3322 26.0099C52.3322 28.4538 54.247 30.2642 56.5815 30.2642C58.9285 30.2642 60.8309 28.4637 60.8309 26.0099C60.8309 23.5435 58.926 21.7555 56.5815 21.7555ZM56.5815 28.5785C55.2975 28.5785 54.1924 27.5111 54.1924 25.9999C54.1924 24.4662 55.3 23.4213 56.5815 23.4213C57.8655 23.4213 58.9707 24.4662 58.9707 25.9999C58.9707 27.5211 57.8655 28.5785 56.5815 28.5785ZM45.5496 23.0548V24.8553H49.8536C49.722 25.8652 49.3892 26.6109 48.8801 27.1221C48.2492 27.7555 47.2757 28.4438 45.5596 28.4438C42.9146 28.4438 40.8458 26.2991 40.8458 23.6433C40.8458 20.9874 42.9146 18.8428 45.5596 18.8428C46.9876 18.8428 48.0282 19.4089 48.8006 20.1321L50.0722 18.8553C48.9993 17.8228 47.5712 17.0323 45.5695 17.0323C41.9411 17.0323 38.8962 19.9999 38.8962 23.6333C38.8962 27.2767 41.9386 30.2343 45.5695 30.2343C47.529 30.2343 48.9993 29.5909 50.1616 28.379C51.3462 27.1894 51.7212 25.5111 51.7212 24.157C51.7212 23.7356 51.6889 23.3565 51.6219 23.0348H45.5472C45.5496 23.0323 45.5496 23.0548 45.5496 23.0548ZM90.673 24.4563C90.3179 23.5011 89.245 21.7455 87.0446 21.7455C84.8641 21.7455 83.0511 23.4687 83.0511 25.9999C83.0511 28.3889 84.8442 30.2543 87.2557 30.2543C89.1929 30.2543 90.3204 29.0647 90.7848 28.3665L89.3468 27.3989C88.87 28.1096 88.2069 28.576 87.2656 28.576C86.3144 28.576 85.6488 28.142 85.2068 27.2867L90.8717 24.9301C90.8717 24.9326 90.673 24.4563 90.673 24.4563ZM84.8963 25.8777C84.8516 24.2343 86.1679 23.3989 87.1092 23.3989C87.8517 23.3989 88.4701 23.7655 88.6813 24.2992L84.8963 25.8777ZM80.2943 29.9999H82.1545V17.5011H80.2943V29.9999ZM77.2396 22.7006H77.1725C76.7528 22.1994 75.9556 21.7455 74.9373 21.7455C72.8239 21.7455 70.8768 23.6134 70.8768 26.0124C70.8768 28.4014 72.8139 30.2468 74.9373 30.2468C75.9432 30.2468 76.7528 29.7904 77.1725 29.2792H77.2396V29.8902C77.2396 31.5136 76.3753 32.3889 74.9821 32.3889C73.8421 32.3889 73.1343 31.566 72.8462 30.8777L71.2294 31.556C71.6939 32.6782 72.9331 34.0672 74.9796 34.0672C77.1601 34.0672 79.0079 32.778 79.0079 29.6333V21.9999H77.2495V22.7006C77.252 22.7006 77.2396 22.7006 77.2396 22.7006ZM75.1037 28.5785C73.8198 28.5785 72.7469 27.5011 72.7469 26.0124C72.7469 24.5111 73.8198 23.4238 75.1037 23.4238C76.3753 23.4238 77.3613 24.5236 77.3613 26.0124C77.3737 27.5011 76.3778 28.5785 75.1037 28.5785ZM99.3828 17.5011H94.9348V29.9999H96.795V25.2667H99.3853C101.444 25.2667 103.468 23.768 103.468 21.3889C103.468 19.0099 101.452 17.5011 99.3828 17.5011ZM99.4375 23.5211H96.7925V19.2318H99.4375C100.831 19.2318 101.618 20.3864 101.618 21.3765C101.618 22.3565 100.821 23.5211 99.4375 23.5211ZM110.924 21.7331C109.573 21.7331 108.18 22.3341 107.603 23.6433L109.252 24.3316C109.608 23.6433 110.258 23.4089 110.946 23.4089C111.91 23.4089 112.883 23.9874 112.906 25.0198V25.152C112.573 24.9625 111.843 24.6732 110.969 24.6732C109.188 24.6732 107.382 25.6508 107.382 27.4837C107.382 29.162 108.843 30.2393 110.469 30.2393C111.719 30.2393 112.406 29.6732 112.836 29.0174H112.903V29.9849H114.696V25.1969C114.696 22.9675 113.047 21.7331 110.924 21.7331ZM110.69 28.5785C110.082 28.5785 109.23 28.2792 109.23 27.5111C109.23 26.5435 110.293 26.177 111.199 26.177C112.019 26.177 112.407 26.354 112.893 26.5984C112.759 27.7206 111.815 28.5685 110.69 28.5785ZM121.238 21.9999L119.102 27.4213H119.035L116.822 21.9999H114.82L118.141 29.5785L116.249 33.7904H118.186L123.294 21.9999H121.238ZM104.494 29.9999H106.354V17.5011H104.494V29.9999Z" fill="white"/>
<path fill-rule="evenodd" clip-rule="evenodd" d="M8.39125 7.53364C8.10316 7.84536 7.93677 8.32167 7.93677 8.94511V31.0573C7.93677 31.6808 8.10316 32.1571 8.40119 32.4563L8.47818 32.5237L20.8164 20.1346V19.8578L8.46824 7.46631L8.39125 7.53364Z" fill="url(#paint0_linear_480_457)"/>
<path fill-rule="evenodd" clip-rule="evenodd" d="M24.9214 24.2767L20.8062 20.1445V19.8553L24.9214 15.7231L25.0108 15.778L29.8786 18.556C31.2718 19.344 31.2718 20.6458 29.8786 21.4438L25.0108 24.2218L24.9214 24.2767Z" fill="url(#paint1_linear_480_457)"/>
<path fill-rule="evenodd" clip-rule="evenodd" d="M25.0109 24.2219L20.8063 20L8.39111 32.4663C8.8456 32.9551 9.60805 33.01 10.4599 32.5337L25.0109 24.2219Z" fill="url(#paint2_linear_480_457)"/>
<path fill-rule="evenodd" clip-rule="evenodd" d="M25.0109 15.7781L10.4599 7.47882C9.60805 6.99004 8.84312 7.05737 8.39111 7.54615L20.8063 20L25.0109 15.7781Z" fill="url(#paint3_linear_480_457)"/>
<path opacity="0.2" fill-rule="evenodd" clip-rule="evenodd" d="M24.9215 24.1322L10.4697 32.3766C9.66252 32.8429 8.94229 32.8105 8.47787 32.3866L8.40088 32.4639L8.47787 32.5312C8.94229 32.9527 9.66252 32.9876 10.4697 32.5212L25.0208 24.222L24.9215 24.1322Z" fill="black"/>
<path opacity="0.12" fill-rule="evenodd" clip-rule="evenodd" d="M29.8787 21.2993L24.9092 24.1322L24.9986 24.2219L29.8663 21.4439C30.5642 21.0449 30.9069 20.5212 30.9069 20C30.8647 20.4788 30.5095 20.9327 29.8787 21.2993Z" fill="black"/>
<path opacity="0.25" fill-rule="evenodd" clip-rule="evenodd" d="M10.46 7.62342L29.8788 18.7007C30.5096 19.0573 30.8647 19.5236 30.9194 19.9999C30.9194 19.4787 30.5767 18.955 29.8788 18.556L10.46 7.47878C9.06677 6.67828 7.93677 7.34661 7.93677 8.94512V9.08975C7.93677 7.48876 9.06677 6.8329 10.46 7.62342Z" fill="white"/>
</g>
<defs>
<linearGradient id="paint0_linear_480_457" x1="19.7096" y1="8.70655" x2="-0.0647436" y2="13.9538" gradientUnits="userSpaceOnUse">
<stop stop-color="#00A0FF"/>
<stop offset="0.00657" stop-color="#00A1FF"/>
<stop offset="0.2601" stop-color="#00BEFF"/>
<stop offset="0.5122" stop-color="#00D2FF"/>
<stop offset="0.7604" stop-color="#00DFFF"/>
<stop offset="1" stop-color="#00E3FF"/>
</linearGradient>
<linearGradient id="paint1_linear_480_457" x1="31.6955" y1="19.9999" x2="7.59772" y2="19.9999" gradientUnits="userSpaceOnUse">
<stop stop-color="#FFE000"/>
<stop offset="0.4087" stop-color="#FFBD00"/>
<stop offset="0.7754" stop-color="#FFA500"/>
<stop offset="1" stop-color="#FF9C00"/>
</linearGradient>
<linearGradient id="paint2_linear_480_457" x1="22.7246" y1="22.2973" x2="6.76185" y2="49.0538" gradientUnits="userSpaceOnUse">
<stop stop-color="#FF3A44"/>
<stop offset="1" stop-color="#C31162"/>
</linearGradient>
<linearGradient id="paint3_linear_480_457" x1="5.26483" y1="0.178808" x2="12.3865" y2="12.1287" gradientUnits="userSpaceOnUse">
<stop stop-color="#32A071"/>
<stop offset="0.0685" stop-color="#2DA771"/>
<stop offset="0.4762" stop-color="#15CF74"/>
<stop offset="0.8009" stop-color="#06E775"/>
<stop offset="1" stop-color="#00F076"/>
</linearGradient>
<clipPath id="clip0_480_457">
<rect width="132" height="39" fill="white"/>
</clipPath>
</defs>
</svg>
